<?xml version="1.0" encoding="UTF-8"?>
<svg xmlns="http://www.w3.org/2000/svg" xmlns:xlink="http://www.w3.org/1999/xlink" viewBox="0 0 500 500" width="500px" height="500px">
<g id="surface10985868">
<path style=" stroke:none;fill-rule:nonzero;fill:rgb(29.019609%,56.470591%,88.627452%);fill-opacity:1;" d="M 410 40 L 90 40 C 62 40 40 62 40 90 L 40 410 C 40 438 62 460 90 460 L 410 460 C 438 460 460 438 460 410 L 460 90 C 460 62 438 40 410 40 Z M 370 350 L 130 350 C 124 350 120 346 120 340 C 120 334 124 330 130 330 L 370 330 C 376 330 380 334 380 340 C 380 346 376 350 370 350 Z M 370 260 L 130 260 C 124 260 120 256 120 250 C 120 244 124 240 130 240 L 370 240 C 376 240 380 244 380 250 C 380 256 376 260 370 260 Z M 370 170 L 130 170 C 124 170 120 166 120 160 C 120 154 124 150 130 150 L 370 150 C 376 150 380 154 380 160 C 380 166 376 170 370 170 Z M 370 170 "/>
</g>
</svg>
