<svg fill="#ffffff" xmlns="http://www.w3.org/2000/svg"  viewBox="0 0 60 50" width="500px" height="500px"><path d="M 18.537109 0 C 14.352109 5.9211895e-16 10.491328 1.8949687 6.7363281 5.7929688 C 2.8346662 9.8419826 0.98752534 18.651343 6.4121094 26 L 1 26 C 0.448 26 0 26.447 0 27 C 0 27.553 0.448 28 1 28 L 8.0898438 28 C 8.1831192 28.096066 8.2709861 28.193776 8.3671875 28.289062 C 12.037188 31.922062 29.10925 49.518313 29.28125 49.695312 C 29.47025 49.890313 29.729 50 30 50 C 30.27 50 30.52975 49.891266 30.71875 49.697266 C 30.89075 49.519266 47.994062 31.923063 51.664062 28.289062 C 51.760257 28.193779 51.848161 28.096108 51.941406 28 L 59 28 C 59.552 28 60 27.553 60 27 C 60 26.447 59.552 26 59 26 L 53.615234 26 C 58.973546 18.705644 57.155146 9.8862343 53.302734 5.8007812 C 49.674734 1.9507813 45.703094 0 41.496094 0 C 36.793094 0 32.538 2.8324375 30 7.5234375 C 27.465 2.8324375 23.222109 0 18.537109 0 z M 18.537109 2 C 23.016109 2 27.052312 5.1648125 29.070312 10.257812 C 29.222313 10.639812 29.59 10.888672 30 10.888672 C 30.41 10.888672 30.778688 10.639812 30.929688 10.257812 C 32.947688 5.1648125 36.997094 2 41.496094 2 C 45.181094 2 48.566656 3.6918281 51.847656 7.1738281 C 55.394716 10.936413 56.907372 19.375079 51.052734 26 L 42.535156 26 L 40.832031 23.445312 C 40.461031 22.888313 39.538969 22.888313 39.167969 23.445312 L 36.240234 27.839844 L 31.933594 16.642578 C 31.774594 16.231578 31.358781 15.965906 30.925781 16.003906 C 30.485781 16.035906 30.119438 16.352203 30.023438 16.783203 L 26.667969 31.890625 L 21.908203 21.580078 C 21.763203 21.266078 21.465094 21.048813 21.121094 21.007812 C 20.774094 20.956812 20.436703 21.105 20.220703 21.375 L 16.519531 26 L 8.9804688 26 C 3.0614285 19.319849 4.5919537 10.902498 8.1777344 7.1796875 C 11.535734 3.6936875 14.924109 2 18.537109 2 z M 43.675781 5.6171875 C 42.884766 5.64875 42.147984 5.8082187 41.552734 6.1054688 C 41.058734 6.3524687 40.858469 6.9532656 41.105469 7.4472656 C 41.352469 7.9412656 41.951266 8.1405312 42.447266 7.8945312 C 44.054266 7.0935313 47.385469 8.0072656 48.105469 9.4472656 C 48.281469 9.7982656 48.634953 10 49.001953 10 C 49.151953 10 49.304266 9.9665312 49.447266 9.8945312 C 49.941266 9.6475312 50.141531 9.0467344 49.894531 8.5527344 C 48.909031 6.5824844 46.048828 5.5225 43.675781 5.6171875 z M 51.117188 12.007812 C 50.988172 11.992672 50.853453 12.002016 50.720703 12.041016 C 50.189703 12.194016 49.885062 12.749297 50.039062 13.279297 C 50.620063 15.280297 50.717469 16.911453 50.355469 18.564453 C 50.238469 19.104453 50.579141 19.636906 51.119141 19.753906 C 51.190141 19.768906 51.262984 19.777344 51.333984 19.777344 C 51.793984 19.777344 52.208547 19.457187 52.310547 18.992188 C 52.741547 17.021188 52.629937 15.029656 51.960938 12.722656 C 51.845438 12.324406 51.504234 12.053234 51.117188 12.007812 z M 31.257812 20.453125 L 35.066406 30.359375 C 35.200406 30.708375 35.519625 30.953141 35.890625 30.994141 C 36.264625 31.034141 36.625031 30.866688 36.832031 30.554688 L 40 25.802734 L 41.167969 27.554688 C 41.353969 27.832687 41.666 28 42 28 L 49.144531 28 C 45.045284 32.109887 33.12398 44.355493 30.001953 47.564453 C 26.885717 44.354673 14.985829 32.110303 10.888672 28 L 17 28 C 17.304 28 17.59125 27.862 17.78125 27.625 L 20.769531 23.888672 L 26.091797 35.419922 C 26.256797 35.775922 26.614 36 27 36 C 27.035 36 27.070469 35.998141 27.105469 35.994141 C 27.532469 35.948141 27.883563 35.635797 27.976562 35.216797 L 31.257812 20.453125 z"/></svg>