<?xml version="1.0" encoding="UTF-8"?>
<svg xmlns="http://www.w3.org/2000/svg" xmlns:xlink="http://www.w3.org/1999/xlink" viewBox="0 0 512 512" width="512px" height="512px">
<g id="surface57237686">
<path style=" stroke:none;fill-rule:nonzero;fill:rgb(0%,38.039216%,65.882355%);fill-opacity:1;" d="M 290.46875 11.613281 C 283.921875 11.933594 277.40625 12.714844 270.96875 13.953125 C 195.679688 28.453125 146.394531 101.246094 160.894531 176.539062 C 175.398438 251.828125 248.1875 301.113281 323.480469 286.613281 C 395.03125 272.832031 443.75 206.082031 435.066406 133.738281 C 426.382812 61.390625 363.25 8.070312 290.46875 11.613281 Z M 175.035156 271.257812 C 167.558594 271.476562 161.617188 277.597656 161.617188 285.074219 L 161.617188 332.839844 C 161.617188 334.472656 160.96875 336.035156 159.8125 337.191406 C 158.660156 338.34375 157.09375 338.992188 155.464844 338.992188 L 57.890625 338.992188 C 31.992188 338.992188 11 359.984375 11 385.882812 C 11 411.78125 31.992188 432.773438 57.890625 432.773438 L 155.464844 432.773438 C 157.09375 432.773438 158.660156 433.421875 159.8125 434.574219 C 160.964844 435.726562 161.613281 437.292969 161.617188 438.925781 L 161.617188 486.691406 C 161.617188 492.75 165.5625 498.101562 171.351562 499.894531 C 177.140625 501.6875 183.425781 499.5 186.847656 494.5 L 255.839844 393.6875 C 259.085938 388.988281 259.085938 382.773438 255.839844 378.070312 L 186.847656 277.265625 C 184.1875 273.382812 179.738281 271.117188 175.035156 271.257812 Z M 210.203125 273.851562 C 207.078125 274.457031 203.960938 275.171875 200.875 275.992188 L 265.996094 371.132812 C 272.128906 380.011719 272.128906 391.757812 266 400.640625 L 219.667969 468.332031 L 448.28125 468.332031 C 462.261719 468.332031 475.671875 462.777344 485.558594 452.890625 C 495.445312 443.003906 501 429.59375 501 415.609375 C 501.144531 346.460938 452.140625 286.964844 384.25 273.851562 C 332.050781 310.597656 262.398438 310.597656 210.203125 273.851562 Z M 149.320312 301.519531 C 139.894531 308.839844 131.414062 317.292969 124.0625 326.691406 L 149.320312 326.691406 Z M 102.429688 445.070312 C 112.230469 459.621094 128.628906 468.339844 146.167969 468.332031 L 149.316406 468.332031 L 149.316406 445.070312 Z M 102.429688 445.070312 "/>
</g>
</svg>
