<?xml version="1.0" encoding="UTF-8"?>
<svg xmlns="http://www.w3.org/2000/svg" xmlns:xlink="http://www.w3.org/1999/xlink" viewBox="0 0 512 512" width="512px" height="512px">
<g id="surface55624334">
<path style=" stroke:none;fill-rule:nonzero;fill:rgb(0%,38.039216%,65.882355%);fill-opacity:1;" d="M 366.441406 313.121094 C 355.347656 302.058594 337.613281 301.378906 325.710938 311.566406 L 305.875 291.730469 C 328.3125 265.988281 340.660156 232.988281 340.628906 198.839844 C 340.628906 120.652344 277.023438 57.046875 198.839844 57.046875 C 120.652344 57.046875 57.046875 120.652344 57.046875 198.839844 C 57.046875 277.023438 120.652344 340.628906 198.839844 340.628906 C 232.988281 340.660156 265.988281 328.3125 291.730469 305.875 L 311.566406 325.707031 C 301.382812 337.613281 302.058594 355.347656 313.121094 366.441406 L 398.707031 452.027344 C 402.609375 455.929688 408.941406 455.929688 412.847656 452.027344 L 452.027344 412.847656 C 453.902344 410.972656 454.957031 408.429688 454.957031 405.777344 C 454.957031 403.125 453.902344 400.582031 452.027344 398.703125 Z M 198.84375 320.628906 C 149.582031 320.632812 105.167969 290.957031 86.316406 245.449219 C 67.464844 199.9375 77.882812 147.550781 112.714844 112.71875 C 147.546875 77.886719 199.933594 67.464844 245.445312 86.316406 C 290.957031 105.167969 320.628906 149.578125 320.628906 198.839844 C 320.550781 266.070312 266.070312 320.550781 198.839844 320.628906 Z M 198.84375 320.628906 "/>
</g>
</svg>
